<svg xmlns="http://www.w3.org/2000/svg" width="148.411" height="216.279" viewBox="0 0 148.411 216.279">
  <g id="trending" transform="translate(0 0)">
    <path id="Path_2" data-name="Path 2" d="M120.349,56.163a6.337,6.337,0,0,0-11.76,3.277,14.024,14.024,0,1,1-28.048,0V6.336a6.337,6.337,0,0,0-10.816-4.48A309.819,309.819,0,0,0,35,45.24a246.09,246.09,0,0,0-23.943,44.64C3.721,108.223,0,125.783,0,142.075a74.2,74.2,0,0,0,148.409,0c0-26.192-9.44-55.1-28.059-85.911Zm0,0" transform="translate(0 0)" fill="#e74c3c"/>
    <path id="Path_3" data-name="Path 3" d="M221.812,56.168a6.337,6.337,0,0,0-11.76,3.277,14.024,14.024,0,1,1-28.048,0V6.341A6.331,6.331,0,0,0,175.668.008V216.283a74.29,74.29,0,0,0,74.206-74.205c0-26.19-9.442-55.094-28.061-85.909Zm0,0" transform="translate(-101.462 -0.004)" fill="#e74c3c"/>
    <path id="Path_4" data-name="Path 4" d="M148.233,253.168H121.084a6.336,6.336,0,0,0,0,12.672h11.852l-27.071,27.071L91.149,278.2a6.334,6.334,0,0,0-8.96,0l-14.4,14.4a6.336,6.336,0,0,0,8.96,8.962l9.919-9.916,14.715,14.715a6.338,6.338,0,0,0,8.96,0L141.9,274.8v11.849a6.336,6.336,0,1,0,12.673,0V259.5a6.336,6.336,0,0,0-6.335-6.336Zm0,0" transform="translate(-38.082 -146.225)" fill="#fff"/>
    <path id="Path_5" data-name="Path 5" d="M211.613,253.168H184.465a6.336,6.336,0,0,0,0,12.673h11.852l-20.647,20.647v17.921L205.277,274.8v11.849a6.336,6.336,0,1,0,12.672,0V259.5a6.339,6.339,0,0,0-6.336-6.336Zm0,0" transform="translate(-101.463 -146.225)" fill="#fff"/>
  </g>
</svg>
